<?xml version="1.0" standalone="no"?>
<!DOCTYPE svg PUBLIC "-//W3C//DTD SVG 20010904//EN"
 "http://www.w3.org/TR/2001/REC-SVG-20010904/DTD/svg10.dtd">
<svg version="1.0" xmlns="http://www.w3.org/2000/svg"
 width="512.000000pt" height="512.000000pt" viewBox="0 0 512.000000 512.000000"
 preserveAspectRatio="xMidYMid meet">
<metadata>
Created by potrace 1.14, written by Peter Selinger 2001-2017
</metadata>
<g transform="translate(0.000000,512.000000) scale(0.100000,-0.100000)"
fill="#000000" stroke="none">
<path d="M2395 5075 c-97 -19 -149 -36 -226 -73 -122 -58 -244 -153 -317 -248
l-23 -29 -122 -1 c-142 -1 -182 -6 -297 -41 -149 -45 -261 -113 -377 -230 -62
-63 -123 -142 -146 -193 -4 -8 -16 -29 -26 -47 -22 -35 -69 -176 -79 -238 -4
-22 -7 -98 -7 -170 l0 -130 -35 -30 c-48 -41 -150 -147 -150 -156 0 -4 -6 -14
-13 -21 -12 -13 -77 -115 -77 -122 0 -2 -9 -24 -20 -50 -12 -25 -21 -48 -21
-51 0 -2 -7 -24 -15 -47 -42 -119 -50 -309 -19 -457 7 -36 46 -152 60 -181 7
-14 21 -42 31 -62 10 -21 22 -38 26 -38 5 0 8 -6 8 -13 0 -29 182 -229 220
-242 17 -5 50 -55 50 -75 0 -20 72 -162 111 -220 47 -70 138 -164 211 -218 31
-23 60 -42 64 -42 3 0 18 -8 32 -18 62 -43 221 -93 342 -108 237 -30 485 41
678 194 31 25 47 31 54 24 8 -8 11 -258 11 -843 0 -753 2 -833 17 -851 15 -19
27 -20 219 -20 171 0 205 3 220 16 17 15 18 59 17 723 l-1 707 55 50 c30 28
70 66 88 83 l34 33 51 -26 c56 -29 119 -53 156 -60 13 -3 31 -9 40 -13 20 -11
138 -24 211 -24 181 0 359 52 502 146 167 110 283 251 353 430 30 77 43 97 78
124 96 73 168 157 233 270 172 302 156 676 -42 968 -37 55 -133 159 -177 193
l-29 21 -2 153 c-3 161 -12 208 -63 337 -30 77 -111 205 -174 275 -98 109
-260 209 -415 255 -101 30 -144 35 -280 34 l-120 -1 -23 33 c-55 81 -167 179
-245 214 -208 95 -271 112 -436 117 -80 2 -150 -2 -195 -11z"/>
</g>
</svg>
